<?xml version="1.0" standalone="no"?>
<!DOCTYPE svg PUBLIC "-//W3C//DTD SVG 20010904//EN"
 "http://www.w3.org/TR/2001/REC-SVG-20010904/DTD/svg10.dtd">
<svg version="1.0" xmlns="http://www.w3.org/2000/svg"
 width="512.000000pt" height="512.000000pt" viewBox="0 0 512.000000 512.000000"
 preserveAspectRatio="xMidYMid meet">

<g transform="translate(0.000000,512.000000) scale(0.100000,-0.100000)"
fill="#000000" stroke="none">
<path d="M2905 5102 c-16 -10 -36 -30 -42 -43 -9 -18 -13 -151 -16 -504 -3
-467 -4 -482 -26 -545 -36 -103 -51 -203 -51 -331 0 -197 46 -363 147 -530 30
-50 53 -92 51 -94 -2 -1 -43 -29 -92 -60 -173 -113 -359 -176 -570 -195 -61
-5 -260 -10 -443 -10 -255 0 -348 -3 -403 -15 -193 -41 -381 -156 -511 -314
l-36 -43 -40 21 c-23 11 -74 47 -115 80 -332 269 -419 742 -205 1120 24 43 78
113 125 163 130 136 252 208 430 254 87 23 111 25 237 21 166 -6 245 -25 377
-94 148 -76 211 -173 210 -323 0 -173 -115 -319 -275 -349 -73 -13 -145 2
-255 57 -68 34 -124 54 -173 62 -296 50 -569 -203 -546 -505 9 -117 66 -240
119 -259 32 -11 73 11 90 49 9 21 6 36 -23 97 -28 62 -33 84 -34 148 0 66 5
85 33 142 58 118 156 179 288 180 72 0 82 -3 179 -51 194 -96 327 -103 478
-24 259 136 351 463 202 717 -41 71 -140 156 -236 203 -328 162 -711 141
-1014 -55 -226 -147 -383 -361 -452 -618 -23 -87 -26 -118 -26 -254 0 -134 4
-168 26 -252 74 -279 238 -494 498 -651 l27 -16 -28 -83 c-16 -46 -34 -118
-39 -161 -16 -112 -15 -1802 0 -1863 7 -28 28 -63 55 -93 72 -80 76 -81 524
-81 479 0 444 -12 438 154 -3 97 -7 118 -31 167 -41 85 -98 143 -179 184 -39
19 -79 35 -89 35 -10 0 -21 4 -24 10 -9 15 371 628 424 683 81 85 217 137 325
123 70 -10 96 -17 96 -27 0 -4 -112 -190 -249 -412 -137 -223 -252 -414 -255
-425 -9 -29 19 -81 47 -86 12 -3 56 -7 97 -9 50 -3 88 -11 115 -25 77 -39 135
-122 135 -192 l0 -30 -91 0 c-99 0 -125 -9 -139 -45 -11 -30 5 -82 30 -95 10
-6 83 -10 163 -10 139 0 144 1 166 24 22 23 23 31 19 133 -3 93 -8 116 -32
166 -15 31 -50 80 -76 107 -50 51 -155 110 -197 110 -13 0 -23 5 -23 11 0 8
412 690 446 737 2 3 481 -134 521 -149 l23 -9 0 -475 c0 -376 3 -482 13 -508
22 -52 68 -98 122 -123 50 -24 52 -24 446 -24 483 0 444 -12 444 142 0 94 -3
108 -32 169 -70 150 -206 239 -365 239 -40 0 -58 4 -58 13 1 6 31 143 68 302
l67 290 35 17 c63 31 60 41 60 -236 l0 -255 26 -20 c35 -28 69 -26 99 4 l25
24 0 294 0 293 60 42 c88 63 181 153 246 240 32 42 62 81 66 87 5 5 6 -15 3
-45 -3 -30 -17 -172 -31 -315 -14 -143 -41 -378 -60 -523 -18 -144 -34 -276
-34 -292 0 -19 9 -35 26 -49 23 -18 41 -21 134 -21 132 0 187 -17 246 -76 39
-38 74 -115 74 -161 0 -10 -44 -13 -218 -13 -215 0 -219 0 -240 -23 -31 -33
-29 -80 4 -106 25 -20 39 -21 291 -21 l264 0 26 26 c25 25 25 29 21 123 -4 83
-10 109 -35 163 -71 151 -206 238 -371 238 l-64 0 6 33 c12 64 66 527 86 727
42 431 52 625 57 1125 l6 500 47 52 c153 167 250 397 266 630 8 120 -6 237
-46 376 l-30 102 0 466 0 466 -23 34 c-41 62 -110 77 -165 37 -17 -13 -113
-119 -213 -236 -135 -159 -186 -212 -198 -207 -56 22 -168 46 -257 56 -127 14
-256 2 -389 -36 -72 -21 -91 -23 -100 -13 -7 7 -92 107 -190 221 -97 114 -190
214 -206 222 -38 20 -78 19 -114 -3z m239 -355 c75 -87 136 -162 136 -166 0
-4 -10 -12 -23 -18 -12 -6 -37 -23 -55 -38 -58 -49 -36 -136 34 -137 18 0 62
20 110 49 146 89 362 143 514 128 153 -15 290 -61 421 -141 73 -44 105 -46
136 -10 42 49 30 80 -50 135 -49 33 -49 33 -29 55 10 11 75 86 143 166 l124
145 6 -445 5 -445 27 -78 c94 -271 35 -585 -155 -823 -63 -81 -175 -175 -227
-193 -55 -18 -160 -13 -211 10 -54 24 -115 81 -141 131 -27 52 -25 60 25 95
24 17 57 53 73 80 23 40 28 59 28 113 -2 242 -315 327 -435 117 -65 -114 -22
-264 93 -323 32 -17 31 -31 -9 -101 -51 -89 -150 -139 -262 -131 -85 6 -129
29 -220 113 -89 82 -150 166 -201 277 -65 137 -75 191 -75 373 0 154 1 164 34
265 l34 105 3 429 c3 235 6 427 7 425 2 -2 65 -75 140 -162z m9 -1873 c75 -59
225 -144 303 -171 26 -9 32 -18 37 -49 9 -58 65 -143 121 -185 188 -142 450
-37 500 202 4 20 15 29 47 38 22 7 79 32 126 56 l85 44 -5 -327 c-6 -359 -12
-405 -71 -564 -54 -144 -117 -239 -241 -363 -81 -81 -133 -124 -199 -162 -49
-29 -91 -52 -92 -50 -2 1 7 44 18 95 l22 93 -21 27 c-32 43 -101 43 -124 0 -7
-12 -67 -261 -134 -553 -94 -405 -120 -536 -113 -554 16 -43 36 -50 148 -51
58 0 123 -5 145 -11 90 -24 161 -104 175 -195 l7 -44 -329 0 c-336 0 -357 2
-385 39 -10 12 -12 200 -13 802 0 780 0 787 -21 813 -27 34 -86 37 -115 5 -17
-19 -19 -42 -22 -265 -2 -134 -6 -244 -11 -244 -4 0 -162 45 -352 101 -277 81
-361 102 -429 106 -161 10 -308 -45 -420 -157 -54 -53 -108 -135 -305 -455
-131 -214 -241 -401 -243 -415 -2 -15 4 -36 16 -50 18 -22 30 -25 113 -31 110
-7 159 -28 211 -89 34 -39 58 -97 58 -139 l0 -22 -341 3 -341 3 -19 24 c-18
22 -19 52 -19 934 0 1007 -2 967 65 1112 66 143 186 266 330 338 141 71 134
70 625 77 396 7 455 10 538 28 188 42 361 115 507 216 44 30 81 55 83 55 1 1
39 -28 85 -65z m603 -132 c55 -48 124 -6 124 74 l0 45 40 -23 40 -23 0 -68 c0
-120 -46 -178 -149 -185 -46 -3 -62 0 -90 20 -59 40 -75 71 -79 151 l-4 73 39
26 38 25 7 -46 c5 -32 15 -53 34 -69z"/>
<path d="M3436 3899 c-24 -19 -26 -26 -26 -98 0 -90 14 -111 73 -111 53 0 77
35 77 112 0 52 -3 63 -29 89 -35 34 -59 36 -95 8z"/>
<path d="M4076 3899 c-24 -19 -26 -26 -26 -95 0 -87 17 -114 74 -114 50 0 76
37 76 106 0 64 -14 98 -47 113 -34 16 -47 14 -77 -10z"/>
</g>
</svg>
